<?xml version="1.0" encoding="UTF-8"?>
<svg id="Layer_2" xmlns="http://www.w3.org/2000/svg" viewBox="0 0 656.1379 570.6128">
  <defs>
    <style>
      .cls-1 {
        fill: #ea037c;
      }
    </style>
  </defs>
  <g id="Layer_1-2" data-name="Layer_1">
    <path class="cls-1" d="M73.9471,279.8673c1.5333.1333,3.0764.2227,4.629.268l5.141.141c-20.653,6.578-39.384,20.183-53.587,39.464-11.6,15.752-17.9821,35.826-17.9821,56.586-.0585,16.0544,3.8372,31.8762,11.343,46.068l70.563,131.476c6.738,12.551,19.4301,18.943,31.894,16.057,16.6639-3.86,31.6-14.517,42.1331-30.058,12.5769-18.6813,27.7571-35.4708,45.0811-49.86,39.871-32.9,72.285-76.409,94.6429-126.757,0,21.036,5.8621,44.609,20.262,63.111,14.4-18.5,20.256-42.075,20.261-63.111,22.36,50.348,54.772,93.855,94.6429,126.757,17.3252,14.3878,32.5057,31.1776,45.0811,49.86,10.5291,15.541,25.469,26.2,42.137,30.058,12.4611,2.886,25.155-3.506,31.891-16.057l70.562-131.476c7.5072-14.1915,11.4039-30.0133,11.3459-46.068,0-20.76-6.38-40.834-17.985-56.586h0c-14.2-19.281-32.931-32.886-53.5861-39.464l5.1429-.141c1.5499-.042,3.0923-.1313,4.627-.268,42.176-3.724,73.951-44,73.951-90.479V49.0583c0-44.527-38.222-56.34-77.441-45.052-67.292,19.369-131.83,62.624-167.226,123.162l-71.387,122.089c-1.2791-3.108-2.442-5.544-3.226-7.1,10.168-4.8012,14.5186-16.9361,9.7174-27.1041-1.0472-2.2177-2.4865-4.228-4.2484-5.934l12.563-40.919c10.3558-33.5587,28.5234-64.1828,53.011-89.358,2.4866-.2929,4.366-2.3914,4.384-4.895-.0305-2.7613-2.2937-4.975-5.0549-4.9445-2.6022.0287-4.7472,2.0487-4.9321,4.6445-25.2721,26.0188-44.0225,57.6531-54.7159,92.313l-11.921,38.831c-4.8663-1.9907-10.3197-1.9907-15.186,0l-11.92-38.831c-10.694-34.6614-29.4458-66.297-54.72-92.316-.1307-2.7583-2.4729-4.8884-5.2312-4.7576s-4.8884,2.4729-4.7576,5.2312c.1155,2.4346,1.9695,4.4312,4.3888,4.7264,24.4883,25.1749,42.6561,55.799,53.012,89.358l12.563,40.919c-8.0792,7.8168-8.2919,20.7032-.4751,28.7824,1.7084,1.7656,3.7222,3.2074,5.9441,4.2556-.787,1.553-1.95,3.989-3.229,7.1l-71.387-122.089C209.2679,66.6324,144.729,23.3774,77.437,4.0084,38.2211-7.2796,0,4.5334,0,49.0604v140.33c-.0009,46.473,31.7732,86.7529,73.9471,90.4769Z"/>
  </g>
</svg>